{"glyphs":{":":{"x_min":0,"x_max":241,"ha":241,"o":"m 68 52 q 68 82 83 98 q 99 115 126 115 q 153 115 167 98 q 181 82 181 50 q 181 21 166 6 q 151 -9 122 -9 q 96 -9 82 7 q 68 22 68 52 z m 68 335 q 68 365 83 382 q 99 399 126 399 q 153 399 167 382 q 181 366 181 334 q 181 306 166 290 q 151 274 124 274 q 97 274 82 290 q 68 305 68 335 z"},"$":{"x_min":0,"x_max":512,"ha":512,"o":"m 264 266 l 264 31 q 312 42 339 72 q 365 102 365 145 q 365 178 342 206 q 318 234 264 266 z m 236 618 q 194 607 173 580 q 152 552 152 509 q 152 477 170 452 q 188 427 236 396 z m 236 727 l 264 727 l 264 663 q 270 663 280 664 q 290 664 295 664 q 333 664 368 659 q 402 654 434 644 l 434 528 l 334 604 q 319 615 306 619 q 293 624 278 624 q 276 624 271 624 q 267 623 264 623 l 264 379 q 381 312 415 271 q 449 230 449 172 q 449 93 401 45 q 353 -3 264 -12 l 264 -69 l 236 -69 l 236 -12 q 194 -12 151 -5 q 107 2 61 16 l 61 131 l 168 47 q 181 37 198 32 q 214 27 236 27 l 236 282 q 136 344 103 387 q 70 430 70 486 q 70 557 114 603 q 158 650 236 661 z"},"?":{"x_min":0,"x_max":449,"ha":449,"o":"m 210 103 q 239 103 254 89 q 269 74 269 45 q 269 20 254 6 q 238 -8 210 -8 q 185 -8 170 6 q 156 20 156 45 q 156 71 171 87 q 186 103 210 103 z m 231 154 l 185 154 q 185 159 184 164 q 184 169 184 178 q 184 226 213 273 q 214 276 215 277 q 226 296 248 331 q 320 444 320 514 q 320 563 294 592 q 268 620 222 620 q 203 620 188 615 q 172 610 160 600 l 58 517 l 58 638 q 105 651 149 657 q 194 664 233 664 q 320 664 373 620 q 427 575 427 504 q 427 475 417 448 q 407 422 379 386 q 349 346 302 300 q 256 254 247 241 q 238 229 235 214 q 231 200 231 174 z"},"<":{"x_min":0,"x_max":833,"ha":833,"o":"m 704 497 l 216 298 l 704 100 l 704 37 l 129 273 l 129 323 l 704 559 z"},"'":{"x_min":0,"x_max":149,"ha":149,"o":"m 103 700 l 103 430 l 46 430 l 46 700 z"},"=":{"x_min":0,"x_max":833,"ha":833,"o":"m 709 176 l 124 176 l 124 233 l 709 233 z m 709 363 l 124 363 l 124 420 l 709 420 z"},"a":{"x_min":0,"x_max":456,"ha":456,"o":"m 301 224 q 205 216 168 196 q 132 176 132 134 q 132 94 161 71 q 190 49 242 49 q 251 49 266 50 q 280 50 301 52 z m 384 325 l 384 151 q 384 99 393 71 q 403 43 425 16 l 323 -11 q 315 3 310 17 q 305 31 303 44 l 302 43 q 198 -12 164 -12 q 113 -12 77 26 q 41 64 41 119 q 41 188 91 220 q 142 252 249 252 q 258 252 268 252 q 278 251 301 250 l 301 341 q 301 384 282 407 q 263 431 228 431 q 201 431 98 347 l 84 335 l 84 440 q 134 455 178 462 q 222 469 258 469 q 331 469 357 442 q 384 416 384 325 z"},"L":{"x_min":0,"x_max":444,"ha":444,"o":"m 55 655 l 218 655 q 199 623 190 592 q 181 561 181 511 l 181 38 l 291 38 q 306 38 318 42 q 330 46 348 60 l 446 133 l 428 0 l 55 0 q 74 34 83 66 q 92 98 92 145 l 92 512 q 92 560 83 591 q 74 623 55 655 z"},"3":{"x_min":0,"x_max":512,"ha":512,"o":"m 288 344 q 368 333 411 291 q 455 249 455 182 q 455 87 391 37 q 327 -14 207 -14 q 168 -14 127 -9 q 87 -3 46 7 l 46 134 l 143 49 q 156 38 170 32 q 185 27 203 27 q 270 27 312 68 q 355 109 355 174 q 355 242 312 278 q 270 313 187 315 q 270 362 304 406 q 338 450 338 506 q 338 557 304 588 q 270 618 212 618 q 193 618 179 613 q 165 607 147 592 l 55 514 l 55 635 q 100 648 145 655 q 190 661 234 661 q 330 661 382 623 q 435 584 435 515 q 435 459 397 416 q 359 372 288 344 z"},";":{"x_min":0,"x_max":241,"ha":241,"o":"m 77 -136 q 97 -109 108 -76 q 118 -43 119 -6 q 94 -6 80 8 q 66 22 66 47 q 66 76 80 91 q 94 106 122 106 q 153 106 168 86 q 183 65 183 24 q 183 -32 153 -77 q 123 -123 77 -136 z m 68 335 q 68 365 83 382 q 99 399 126 399 q 153 399 167 382 q 181 366 181 334 q 181 306 166 290 q 151 274 124 274 q 97 274 82 290 q 68 305 68 335 z"},"J":{"x_min":0,"x_max":275,"ha":275,"o":"m 65 655 l 226 655 q 207 623 198 593 q 190 562 190 517 l 190 511 l 190 39 q 190 -42 178 -78 q 167 -114 139 -145 q 111 -176 71 -192 q 30 -209 -17 -209 q -38 -209 -56 -207 q -75 -206 -93 -202 l -93 -86 l -7 -153 q 1 -160 9 -162 q 16 -165 25 -165 q 62 -165 82 -125 q 102 -85 102 -8 l 102 511 q 102 559 93 590 q 84 622 65 655 z"},"V":{"x_min":0,"x_max":551,"ha":551,"o":"m -22 655 l 158 655 q 141 630 134 618 q 128 605 128 596 q 128 590 131 579 q 134 568 140 549 l 293 92 l 453 570 q 456 579 458 587 q 459 595 459 601 q 459 615 437 647 q 433 653 431 655 l 580 655 q 557 631 538 602 q 520 573 507 539 l 303 0 l 236 0 l 49 544 q 37 578 20 604 q 3 630 -22 655 z"},"\"":{"x_min":0,"x_max":288,"ha":288,"o":"m 242 700 l 242 430 l 184 430 l 184 700 z m 103 700 l 103 430 l 46 430 l 46 700 z"},"7":{"x_min":0,"x_max":512,"ha":512,"o":"m 60 655 l 488 655 l 366 386 q 329 304 292 203 q 256 103 222 -8 l 122 -8 l 406 581 l 208 581 q 189 581 177 578 q 166 575 157 569 l 60 498 z"},"S":{"x_min":0,"x_max":484,"ha":484,"o":"m 414 644 l 414 529 l 315 605 q 301 616 288 621 q 275 626 261 626 q 216 626 183 594 q 151 562 151 517 q 151 481 169 454 q 188 428 242 392 l 348 322 q 400 288 420 255 q 440 223 440 176 q 440 90 379 38 q 319 -15 219 -15 q 180 -15 140 -8 q 101 0 59 15 l 59 132 l 165 51 q 181 40 193 35 q 205 30 218 30 q 277 30 315 62 q 352 95 352 146 q 352 176 337 198 q 322 221 282 249 l 165 330 q 111 367 89 403 q 67 439 67 489 q 67 565 124 615 q 180 664 268 664 q 301 664 337 659 q 374 654 414 644 z"},"}":{"x_min":0,"x_max":500,"ha":500,"o":"m 275 424 q 275 350 302 319 q 329 289 395 289 q 398 289 406 290 q 413 290 417 290 l 417 228 q 413 228 406 229 q 398 229 395 229 q 329 229 302 199 q 275 168 275 94 l 275 -24 q 275 -101 264 -131 q 253 -161 227 -178 q 208 -191 179 -197 q 151 -202 101 -202 l 81 -202 l 81 -141 q 85 -141 92 -142 q 100 -142 103 -142 q 162 -142 183 -119 q 204 -96 204 -22 l 204 95 q 204 176 226 210 q 247 244 301 259 q 247 274 226 308 q 204 342 204 423 l 204 541 q 204 614 183 637 q 161 660 100 660 l 81 660 l 81 721 l 98 721 q 147 721 177 715 q 207 709 227 696 q 253 679 264 648 q 275 617 275 543 z"},"Z":{"x_min":0,"x_max":539,"ha":539,"o":"m 66 655 l 507 655 l 152 41 l 354 41 q 386 41 455 95 q 487 120 507 134 l 488 0 l 25 0 l 381 615 l 216 615 q 178 615 89 549 q 74 538 66 532 z"},"x":{"x_min":0,"x_max":462,"ha":462,"o":"m 6 463 l 171 463 q 163 451 159 442 q 155 433 155 426 q 155 420 157 414 q 160 407 169 393 l 236 290 l 302 396 q 303 397 305 400 q 314 416 314 424 q 314 430 310 438 q 306 446 295 463 l 425 463 q 400 441 376 414 q 353 386 329 354 l 258 256 l 352 116 q 382 70 403 46 q 424 21 449 0 l 277 0 q 287 12 292 21 q 296 30 296 37 q 296 46 281 71 l 280 73 l 206 187 l 128 63 l 127 62 q 119 49 119 39 q 119 30 124 20 q 128 10 138 0 l 8 0 q 24 15 42 34 q 59 54 77 79 l 183 221 l 84 374 q 69 397 50 419 q 30 442 6 463 z"},")":{"x_min":0,"x_max":262,"ha":262,"o":"m 27 708 q 120 645 168 529 q 216 414 216 253 q 216 89 169 -26 q 122 -141 27 -208 q 79 -121 105 -5 q 132 110 132 250 q 132 390 105 505 q 79 621 27 708 z"},"&":{"x_min":0,"x_max":641,"ha":641,"o":"m 201 322 q 161 287 142 251 q 122 214 122 174 q 122 110 166 69 q 210 29 282 29 q 325 29 362 39 q 398 48 429 68 z m 277 362 l 491 129 q 509 155 518 192 q 527 229 527 273 q 527 313 468 384 l 463 390 l 588 390 q 590 366 592 347 q 593 328 593 312 q 593 247 574 192 q 556 136 521 95 q 555 58 583 34 q 612 11 640 0 l 495 0 l 454 39 q 419 14 375 1 q 330 -12 276 -12 q 171 -12 104 39 q 37 91 37 169 q 37 223 73 265 q 108 308 183 342 q 137 391 117 431 q 97 472 97 514 q 97 583 141 623 q 185 664 259 664 q 330 664 372 627 q 414 590 414 528 q 414 478 379 435 q 343 392 277 362 z m 258 383 q 298 416 317 452 q 337 489 337 531 q 337 575 316 601 q 294 626 257 626 q 216 626 194 601 q 172 575 172 529 q 172 500 190 468 q 208 437 258 383 z"},"_":{"x_min":0,"x_max":500,"ha":500,"o":"m 500 -178 l 500 -236 l 0 -236 l 0 -178 z"},"v":{"x_min":0,"x_max":435,"ha":435,"o":"m -19 463 l 160 463 l 157 458 q 133 423 133 407 q 133 400 135 390 q 137 380 141 368 l 239 75 l 326 368 q 330 382 333 394 q 335 406 335 413 q 335 422 329 434 q 323 446 310 463 l 450 463 q 428 443 408 411 q 388 378 373 338 l 243 -5 l 185 -5 l 66 321 l 65 324 q 31 416 -19 463 z"},"O":{"x_min":0,"x_max":676,"ha":676,"o":"m 337 619 q 250 619 200 543 q 150 467 150 334 q 150 192 201 110 q 252 29 339 29 q 426 29 476 105 q 526 182 526 315 q 526 457 475 538 q 424 619 337 619 z m 49 317 q 49 476 130 570 q 210 664 347 664 q 474 664 550 573 q 627 483 627 332 q 627 173 546 79 q 464 -15 328 -15 q 202 -15 125 76 q 49 167 49 317 z"},"(":{"x_min":0,"x_max":262,"ha":262,"o":"m 237 708 q 185 623 158 506 q 132 390 132 250 q 132 108 158 -8 q 185 -124 237 -208 q 143 -141 95 -26 q 48 89 48 253 q 48 414 96 529 q 144 645 237 708 z"},"C":{"x_min":0,"x_max":566,"ha":566,"o":"m 532 645 l 532 529 l 426 607 q 415 615 402 619 q 390 622 368 622 q 266 622 207 542 q 148 461 148 319 q 148 181 205 104 q 262 26 363 26 q 383 26 398 29 q 413 33 421 39 l 540 130 l 523 6 q 479 -4 438 -10 q 397 -15 360 -15 q 206 -15 125 68 q 45 151 45 310 q 45 472 133 569 q 220 665 368 665 q 404 665 445 660 q 485 655 532 645 z"},"W":{"x_min":0,"x_max":877,"ha":877,"o":"m 3 655 l 182 655 q 167 638 160 624 q 153 609 153 596 q 153 591 154 583 q 156 576 160 558 l 277 130 l 430 655 l 493 655 l 650 130 l 775 575 q 777 583 778 589 q 779 596 779 600 q 779 612 773 625 q 767 638 753 655 l 897 655 q 872 628 855 601 q 839 573 828 539 l 656 0 l 598 0 l 442 521 l 291 0 l 227 0 l 71 546 q 61 580 45 605 q 29 631 3 655 z"},"A":{"x_min":0,"x_max":562,"ha":562,"o":"m 269 565 l 181 306 l 352 306 z m 320 667 l 498 143 q 516 91 535 57 q 555 23 580 0 l 401 0 q 417 20 424 34 q 431 48 431 58 q 431 64 428 75 q 425 86 420 102 l 366 264 l 165 264 l 106 92 q 102 81 100 72 q 98 63 98 55 q 98 43 105 30 q 112 17 128 0 l -24 0 q -1 22 19 56 q 38 90 60 146 l 252 643 z"},"f":{"x_min":0,"x_max":289,"ha":289,"o":"m 389 692 l 389 591 l 310 651 q 298 661 289 664 q 280 668 270 668 q 222 668 198 634 q 174 600 174 530 l 174 463 l 289 463 l 289 419 l 174 419 l 174 125 q 174 85 183 57 q 192 30 213 0 l 52 0 q 71 32 81 61 q 90 89 90 123 l 90 134 l 90 419 l 27 419 l 27 463 l 90 463 l 90 518 q 90 609 143 657 q 196 706 296 706 q 317 706 340 703 q 363 699 389 692 z"},"Q":{"x_min":0,"x_max":676,"ha":676,"o":"m 403 0 l 596 -116 q 608 -124 624 -128 q 640 -133 652 -133 q 656 -133 678 -131 q 700 -128 716 -127 q 673 -172 645 -191 q 616 -209 590 -209 q 573 -209 557 -203 q 542 -197 525 -184 l 298 -8 q 182 8 115 95 q 49 183 49 321 q 49 478 130 572 q 212 665 348 665 q 474 665 550 575 q 627 486 627 338 q 627 202 566 110 q 505 19 403 0 z m 337 619 q 250 619 200 543 q 150 467 150 334 q 150 192 201 110 q 252 29 339 29 q 426 29 476 105 q 526 182 526 315 q 526 457 475 538 q 424 619 337 619 z"},"w":{"x_min":0,"x_max":706,"ha":706,"o":"m -16 463 l 163 463 q 147 441 141 427 q 134 413 134 403 q 134 399 135 393 q 137 387 141 373 l 228 97 l 350 463 l 391 463 l 516 91 l 597 374 q 601 387 603 397 q 605 407 605 413 q 605 422 599 434 q 593 446 580 463 l 716 463 q 676 420 643 332 l 643 331 l 516 -7 l 465 -7 l 351 329 l 237 -7 l 181 -7 l 51 362 l 51 362 q 32 417 -16 463 z"},"-":{"x_min":0,"x_max":275,"ha":275,"o":"m 32 284 l 243 284 l 243 209 l 32 209 z"},"E":{"x_min":0,"x_max":509,"ha":509,"o":"m 57 655 l 458 655 l 458 529 l 364 601 q 354 608 343 612 q 331 615 315 615 l 183 615 l 183 348 l 305 348 q 312 348 328 354 q 343 359 354 367 l 412 409 l 412 256 l 356 296 q 345 304 332 308 q 319 311 293 311 l 183 311 l 183 38 l 327 38 q 346 38 369 55 q 374 59 376 60 l 474 133 l 455 0 l 57 0 q 76 34 85 66 q 94 98 94 145 l 94 512 q 94 560 85 591 q 76 623 57 655 z"},"s":{"x_min":0,"x_max":398,"ha":398,"o":"m 340 453 l 340 346 q 267 401 241 417 q 214 432 199 432 q 172 432 153 413 q 134 393 134 365 q 134 343 150 324 q 166 306 200 288 l 267 253 q 318 226 338 199 q 358 173 358 134 q 358 64 312 26 q 267 -12 184 -12 q 157 -12 123 -7 q 90 -1 52 10 l 52 122 q 127 60 156 42 q 184 25 202 25 q 232 25 254 47 q 276 69 276 100 q 276 125 262 143 q 249 160 213 178 l 161 204 q 107 231 83 262 q 58 294 58 335 q 58 395 102 432 q 146 469 218 469 q 244 469 275 465 q 307 461 340 453 z"},">":{"x_min":0,"x_max":833,"ha":833,"o":"m 704 323 l 704 273 l 129 37 l 129 100 l 617 298 l 129 497 l 129 559 z"},"l":{"x_min":0,"x_max":245,"ha":245,"o":"m 164 708 l 164 144 q 164 94 173 63 q 182 32 201 0 l 44 0 q 63 33 72 65 q 81 96 81 144 l 81 570 q 81 597 71 624 q 62 651 41 681 z"},"8":{"x_min":0,"x_max":512,"ha":512,"o":"m 227 313 q 177 276 152 238 q 128 200 128 157 q 128 95 162 59 q 195 23 253 23 q 311 23 347 58 q 383 92 383 147 q 383 191 354 224 q 326 257 227 313 z m 312 364 q 397 321 432 277 q 466 234 466 171 q 466 84 407 34 q 348 -16 245 -16 q 157 -16 102 32 q 46 80 46 155 q 46 216 86 260 q 127 305 203 328 q 140 360 109 403 q 78 446 78 501 q 78 576 126 620 q 175 663 259 663 q 342 663 388 625 q 434 587 434 520 q 434 469 403 429 q 373 390 312 364 z m 286 380 q 320 410 339 446 q 357 481 357 518 q 357 568 331 596 q 305 625 259 625 q 212 625 184 597 q 156 569 156 522 q 156 479 186 446 q 216 413 286 380 z"},"\\":{"x_min":0,"x_max":231,"ha":231,"o":"m -35 649 l 8 665 l 267 -47 l 223 -62 z"},"e":{"x_min":0,"x_max":484,"ha":484,"o":"m 445 252 l 138 252 l 138 249 q 138 145 188 96 q 238 47 344 47 q 367 47 394 50 q 420 53 449 59 q 409 23 362 6 q 315 -11 259 -11 q 163 -11 106 52 q 49 115 49 221 q 49 273 64 317 q 79 360 108 395 q 138 430 178 449 q 219 469 262 469 q 349 469 395 414 q 442 358 445 252 z m 344 304 q 343 368 321 400 q 298 432 253 432 q 202 432 172 392 q 142 352 139 279 z"},"b":{"x_min":0,"x_max":525,"ha":525,"o":"m 166 53 q 189 45 207 41 q 225 37 239 37 q 312 37 355 88 q 398 138 398 225 q 398 314 353 361 q 308 408 223 408 q 208 408 172 405 q 168 404 166 404 z m 166 708 l 166 412 q 219 446 248 458 q 278 469 307 469 q 384 469 434 407 q 484 346 484 249 q 484 140 422 66 q 360 -7 270 -7 q 239 -7 212 1 q 186 9 164 25 l 82 -15 l 82 541 q 82 577 72 609 q 62 642 38 681 z"},"%":{"x_min":0,"x_max":512,"ha":512,"o":"m 368 259 q 339 259 323 226 q 306 193 306 136 q 306 80 323 48 q 339 16 368 16 q 398 16 415 49 q 432 82 432 142 q 432 195 415 227 q 397 259 368 259 z m 368 290 q 424 290 459 248 q 494 206 494 138 q 494 71 459 29 q 424 -14 369 -14 q 313 -14 279 27 q 244 69 244 135 q 244 202 280 246 q 315 290 368 290 z m 503 566 l 520 549 l 25 84 l 10 100 z m 152 632 q 124 632 107 598 q 90 565 90 507 q 90 451 106 418 q 123 386 152 386 q 182 386 199 419 q 216 453 216 513 q 216 567 198 600 q 181 632 152 632 z m 152 662 q 208 662 243 620 q 278 578 278 509 q 278 441 242 398 q 207 355 151 355 q 98 355 63 398 q 28 441 28 507 q 28 574 63 618 q 99 662 152 662 z"},"m":{"x_min":0,"x_max":780,"ha":780,"o":"m 170 473 l 170 418 q 236 450 267 459 q 299 469 326 469 q 354 469 379 456 q 403 442 419 419 q 486 449 520 459 q 554 469 583 469 q 650 469 680 430 q 710 390 710 300 l 710 138 q 710 92 719 62 q 727 32 746 0 l 590 0 q 609 32 617 63 q 626 94 626 144 l 626 272 q 626 351 596 381 q 566 410 485 410 q 472 410 457 409 q 441 409 424 407 q 433 394 436 370 q 440 346 440 300 l 440 144 q 440 94 449 63 q 458 32 477 0 l 320 0 q 339 33 348 65 q 357 96 357 144 l 357 272 q 357 349 327 379 q 298 410 226 410 q 214 410 201 409 q 187 409 170 407 l 170 144 q 170 94 179 63 q 188 32 207 0 l 50 0 q 69 33 78 65 q 87 96 87 144 l 87 335 q 87 362 77 389 q 67 416 47 446 z"},"#":{"x_min":0,"x_max":769,"ha":769,"o":"m 369 481 l 496 481 l 578 711 l 648 711 l 568 481 l 718 481 l 697 421 l 545 421 l 499 288 l 660 288 l 639 228 l 477 228 l 396 -1 l 325 -1 l 407 228 l 278 228 l 196 -1 l 126 -1 l 207 228 l 51 228 l 72 288 l 228 288 l 275 421 l 108 421 l 129 481 l 297 481 l 379 711 l 450 711 z m 428 288 l 475 421 l 346 421 l 300 288 z"},",":{"x_min":0,"x_max":256,"ha":256,"o":"m 97 -136 q 117 -109 128 -76 q 138 -43 139 -6 q 114 -6 100 8 q 86 22 86 47 q 86 76 101 91 q 115 106 143 106 q 174 106 188 86 q 203 66 203 24 q 203 -32 173 -77 q 143 -123 97 -136 z"},"n":{"x_min":0,"x_max":521,"ha":521,"o":"m 166 473 l 166 418 q 239 449 274 459 q 309 469 335 469 q 393 469 421 427 q 449 385 449 300 l 449 144 q 449 94 458 63 q 467 32 486 0 l 329 0 q 348 33 357 65 q 366 96 366 144 l 366 272 q 366 351 336 380 q 306 410 226 410 q 211 410 196 409 q 181 409 166 407 l 166 138 q 166 92 175 62 q 183 32 202 0 l 46 0 q 65 32 73 63 q 82 94 82 144 l 82 335 q 82 364 73 390 q 64 416 43 446 z"},"h":{"x_min":0,"x_max":521,"ha":521,"o":"m 166 708 l 166 418 q 239 449 274 459 q 309 469 335 469 q 393 469 421 427 q 449 385 449 300 l 449 144 q 449 94 458 63 q 467 32 486 0 l 329 0 q 348 33 357 65 q 366 96 366 144 l 366 272 q 366 351 336 380 q 306 410 226 410 q 211 410 196 409 q 181 409 166 407 l 166 138 q 166 92 175 62 q 183 32 202 0 l 46 0 q 65 32 73 63 q 82 94 82 144 l 82 541 q 82 577 72 609 q 62 642 38 681 z"},"z":{"x_min":0,"x_max":463,"ha":463,"o":"m 69 463 l 427 463 l 158 41 l 282 41 q 300 41 311 44 q 322 47 331 54 l 421 125 l 421 0 l 34 0 l 303 422 l 201 422 q 189 422 180 419 q 172 417 162 410 l 69 346 z"},"B":{"x_min":0,"x_max":532,"ha":532,"o":"m 183 315 l 183 37 l 246 37 q 318 37 355 72 q 393 107 393 174 q 393 244 354 279 q 316 315 240 315 z m 183 618 l 183 352 l 237 352 q 292 352 327 390 q 362 429 362 490 q 362 551 330 585 q 299 618 241 618 z m 57 655 l 259 655 q 359 655 409 617 q 459 579 459 503 q 459 435 417 392 q 375 349 297 338 q 388 334 440 289 q 493 244 493 171 q 493 89 434 44 q 375 0 266 0 l 57 0 q 76 33 85 65 q 94 96 94 144 l 94 511 q 94 559 85 590 q 76 622 57 655 z"},"K":{"x_min":0,"x_max":553,"ha":553,"o":"m 403 655 l 575 655 q 549 640 526 620 q 502 601 473 571 l 281 371 l 481 95 q 504 62 529 40 q 554 17 585 0 l 425 0 l 191 337 l 412 586 q 417 592 422 601 q 426 609 426 613 q 426 622 420 631 q 415 641 403 655 z m 55 655 l 216 655 q 197 623 189 593 q 180 562 180 517 l 180 511 l 180 138 q 180 92 189 62 q 197 32 216 0 l 55 0 q 74 33 83 65 q 92 96 92 144 l 92 511 q 92 559 83 590 q 74 622 55 655 z"},"R":{"x_min":0,"x_max":549,"ha":549,"o":"m 182 618 l 182 353 l 232 353 q 295 353 329 388 q 363 423 363 488 q 363 554 331 586 q 298 618 232 618 z m 58 655 l 256 655 q 318 655 347 649 q 375 644 396 631 q 425 613 442 578 q 460 543 460 503 q 460 431 416 385 q 373 340 291 328 l 437 129 q 469 85 500 54 q 531 23 564 0 l 418 0 l 182 335 l 182 144 q 182 94 191 63 q 200 32 219 0 l 58 0 q 77 32 85 63 q 94 94 94 144 l 94 511 q 94 561 85 592 q 77 623 58 655 z"},"T":{"x_min":0,"x_max":537,"ha":537,"o":"m 12 655 l 532 655 l 532 528 l 441 597 q 433 603 421 607 q 408 611 396 611 l 316 611 l 316 144 q 316 94 325 63 q 333 32 353 0 l 192 0 q 211 32 219 63 q 228 94 228 144 l 228 611 l 148 611 q 138 611 126 607 q 114 604 106 598 l 12 528 z"},"P":{"x_min":0,"x_max":484,"ha":484,"o":"m 177 616 l 177 316 q 188 315 197 315 q 207 315 219 315 q 292 315 330 354 q 368 393 368 468 q 368 538 335 577 q 302 616 244 616 z m 53 655 l 264 655 q 363 655 416 607 q 469 559 469 468 q 469 380 408 327 q 347 275 243 275 q 220 275 205 275 q 191 276 177 277 l 177 144 q 177 94 186 63 q 195 32 214 0 l 53 0 q 72 32 80 63 q 89 94 89 144 l 89 511 q 89 561 80 592 q 72 623 53 655 z"},"|":{"x_min":0,"x_max":500,"ha":500,"o":"m 281 764 l 281 -236 l 219 -236 l 219 764 z"},"t":{"x_min":0,"x_max":336,"ha":336,"o":"m 168 595 l 168 463 l 321 463 l 321 419 l 168 419 l 168 147 q 168 83 190 65 q 211 47 275 47 q 290 47 307 49 q 325 50 344 53 q 307 22 267 6 q 227 -11 190 -11 q 131 -11 108 20 q 84 50 84 135 l 84 419 l 4 419 q 57 464 98 508 q 140 552 168 595 z"},"M":{"x_min":0,"x_max":794,"ha":794,"o":"m 49 655 l 186 655 l 395 139 l 604 655 l 737 655 q 718 623 710 593 q 701 562 701 517 l 701 511 l 701 138 q 701 92 710 62 q 718 32 737 0 l 579 0 q 598 33 607 65 q 616 96 616 144 l 616 553 l 390 0 l 358 0 l 137 553 l 137 138 q 137 92 146 62 q 154 32 173 0 l 49 0 q 68 32 76 63 q 85 94 85 144 l 85 511 q 85 561 76 592 q 68 623 49 655 z"},"g":{"x_min":0,"x_max":505,"ha":505,"o":"m 142 6 q 125 -15 116 -35 q 107 -56 107 -73 q 107 -113 142 -137 q 177 -161 236 -161 q 301 -161 347 -130 q 392 -100 392 -57 q 392 -26 372 -13 q 353 0 301 0 l 207 0 q 183 0 169 1 q 155 3 142 6 z m 226 435 q 188 435 166 407 q 144 380 144 332 q 144 276 170 240 q 197 203 236 203 q 271 203 294 231 q 316 258 316 303 q 316 362 291 398 q 266 435 226 435 z m 481 469 l 481 397 l 347 428 q 373 406 386 378 q 400 350 400 319 q 400 253 354 211 q 309 170 236 170 q 227 170 215 171 q 204 171 190 173 q 184 162 181 151 q 178 140 178 131 q 178 105 194 94 q 210 83 251 83 l 338 83 q 402 83 429 60 q 456 38 456 -14 q 456 -53 439 -88 q 423 -122 392 -146 q 355 -175 310 -191 q 265 -206 215 -206 q 134 -206 80 -174 q 25 -143 25 -99 q 25 -75 45 -52 q 65 -30 131 13 q 111 21 100 36 q 89 51 89 70 q 89 94 110 118 q 132 143 181 174 q 123 185 90 221 q 58 258 58 314 q 58 382 106 426 q 155 469 231 469 q 260 469 285 461 q 310 453 334 437 z"},"j":{"x_min":0,"x_max":257,"ha":257,"o":"m 173 473 l 173 57 q 173 -93 134 -150 q 95 -208 1 -208 q -13 -208 -28 -207 q -43 -205 -62 -202 l -62 -96 l 2 -149 q 14 -159 21 -162 q 27 -165 34 -165 q 65 -165 77 -133 q 90 -102 90 -12 l 90 335 q 90 362 80 389 q 70 416 50 446 z m 130 696 q 153 696 168 681 q 182 666 182 642 q 182 616 169 602 q 155 588 130 588 q 105 588 91 602 q 77 617 77 642 q 77 666 92 681 q 106 696 130 696 z"},"i":{"x_min":0,"x_max":257,"ha":257,"o":"m 172 473 l 172 144 q 172 94 181 63 q 190 32 209 0 l 52 0 q 71 33 80 65 q 89 96 89 144 l 89 335 q 89 362 79 389 q 69 416 49 446 z m 128 696 q 151 696 166 681 q 181 666 181 642 q 181 616 167 602 q 154 588 128 588 q 104 588 90 602 q 76 616 76 642 q 76 666 91 681 q 105 696 128 696 z"},"y":{"x_min":0,"x_max":442,"ha":442,"o":"m -10 463 l 168 463 q 153 445 146 431 q 138 417 138 406 q 138 398 144 381 q 146 376 146 375 l 250 91 l 337 376 q 340 387 342 396 q 344 405 344 411 q 344 420 338 432 q 333 444 319 463 l 456 463 q 435 442 418 416 q 402 390 388 353 l 231 -72 q 206 -141 168 -174 q 131 -207 79 -207 q 66 -207 49 -205 q 33 -204 14 -200 l 14 -94 l 75 -146 q 83 -152 92 -156 q 100 -160 106 -160 q 131 -160 157 -121 q 183 -83 207 -8 l 59 357 q 58 359 56 364 q 30 427 -10 463 z"},"@":{"x_min":0,"x_max":1000,"ha":1000,"o":"m 616 349 q 608 393 581 417 q 554 442 515 442 q 444 442 396 378 q 348 313 348 218 q 348 164 373 135 q 398 106 444 106 q 494 106 533 140 q 573 175 587 231 z m 659 471 l 713 471 l 644 194 q 641 182 640 172 q 638 163 638 155 q 638 133 651 122 q 664 111 689 111 q 713 111 740 122 q 766 134 791 155 q 834 192 859 250 q 884 308 884 374 q 884 504 789 583 q 693 662 535 662 q 453 662 383 637 q 312 611 256 562 q 188 502 153 424 q 118 346 118 251 q 118 167 148 103 q 177 39 239 -10 q 288 -49 356 -71 q 424 -92 500 -92 q 584 -92 663 -68 q 743 -44 808 0 l 830 -32 q 758 -85 677 -113 q 596 -140 508 -140 q 415 -140 338 -117 q 261 -95 203 -50 q 128 7 92 82 q 55 158 55 255 q 55 334 80 406 q 104 477 153 537 q 224 624 323 668 q 422 712 545 712 q 625 712 696 691 q 767 669 818 630 q 881 582 913 518 q 946 454 946 380 q 946 297 915 229 q 885 161 826 114 q 792 87 754 73 q 715 59 674 59 q 625 59 601 78 q 577 97 577 135 q 577 136 578 140 q 578 144 578 146 q 553 104 516 81 q 479 59 433 59 q 358 59 319 101 q 280 142 280 221 q 280 334 346 412 q 413 489 509 489 q 553 489 584 469 q 614 450 631 412 z"},".":{"x_min":0,"x_max":256,"ha":256,"o":"m 88 51 q 88 82 104 99 q 120 117 147 117 q 173 117 188 100 q 202 83 202 51 q 202 22 187 7 q 171 -8 142 -8 q 116 -8 102 7 q 88 22 88 51 z"},"p":{"x_min":0,"x_max":532,"ha":532,"o":"m 166 54 q 184 46 202 42 q 221 38 242 38 q 313 38 355 90 q 397 142 397 230 q 397 320 353 367 q 309 413 223 413 q 212 413 198 411 q 185 410 166 406 z m 166 473 l 166 415 q 206 443 242 458 q 279 473 309 473 q 386 473 437 409 q 489 345 489 248 q 489 143 425 67 q 362 -8 275 -8 q 246 -8 219 0 q 191 8 166 25 l 166 -68 q 166 -114 175 -144 q 183 -174 202 -206 l 46 -206 q 65 -173 73 -143 q 82 -112 82 -62 l 82 335 q 82 363 73 390 q 63 417 43 446 z"},"X":{"x_min":0,"x_max":583,"ha":583,"o":"m 22 655 l 209 655 q 197 641 191 629 q 185 618 185 609 q 185 602 189 592 q 193 582 204 562 l 303 397 l 404 571 q 410 582 414 593 q 418 604 418 609 q 418 615 413 626 q 407 637 395 655 l 546 655 q 528 639 508 615 q 487 591 460 551 l 328 359 l 487 96 q 500 75 521 50 q 542 25 570 0 l 386 0 q 400 21 405 30 q 410 39 410 44 q 410 50 406 61 q 401 71 393 85 l 274 280 l 164 84 q 159 74 155 64 q 152 53 152 47 q 152 39 158 27 q 165 16 178 0 l 21 0 q 47 25 69 52 q 91 79 114 114 l 249 319 l 111 548 q 95 573 73 600 q 52 626 22 655 z"},"*":{"x_min":0,"x_max":322,"ha":322,"o":"m 65 680 l 158 555 l 33 648 z m 1 573 l 156 550 l 1 526 z m 157 544 l 67 418 l 33 451 z m 161 544 l 184 390 l 138 390 z m 166 545 l 292 453 l 258 420 z m 320 573 l 320 526 l 165 550 z m 259 681 l 294 647 l 165 555 z m 138 708 l 184 708 l 161 554 z"},"Y":{"x_min":0,"x_max":532,"ha":532,"o":"m -22 655 l 166 655 q 154 638 148 626 q 142 615 142 608 q 142 601 146 592 q 150 582 159 567 l 282 362 l 398 576 l 398 577 q 409 596 409 609 q 409 616 403 628 q 397 640 387 655 l 542 655 q 516 632 493 603 q 469 574 442 532 l 307 325 l 307 144 q 307 94 316 63 q 325 32 344 0 l 183 0 q 202 32 210 63 q 219 94 219 144 l 219 301 l 65 552 q 44 585 24 609 q 4 632 -22 655 z"},"c":{"x_min":0,"x_max":428,"ha":428,"o":"m 407 452 l 407 344 l 307 413 q 294 422 284 426 q 273 430 264 430 q 211 430 175 375 q 138 320 138 236 q 138 142 185 94 q 232 46 326 46 q 354 46 382 48 q 410 50 436 54 q 395 20 350 3 q 306 -13 255 -13 q 164 -13 105 48 q 46 109 46 205 q 46 323 113 396 q 181 469 289 469 q 316 469 345 465 q 374 461 407 452 z"},"!":{"x_min":0,"x_max":257,"ha":257,"o":"m 137 103 q 167 103 181 89 q 196 74 196 45 q 196 20 180 6 q 165 -8 137 -8 q 112 -8 97 6 q 83 20 83 45 q 83 71 98 87 q 113 103 137 103 z m 83 655 l 196 655 l 159 155 l 121 155 z"},"/":{"x_min":0,"x_max":231,"ha":231,"o":"m 223 665 l 267 649 l 8 -62 l -35 -47 z"},"[":{"x_min":0,"x_max":269,"ha":269,"o":"m 88 708 l 220 708 l 204 687 q 174 648 168 639 q 162 630 160 620 q 157 610 157 592 l 157 569 l 157 -83 q 157 -117 172 -144 q 186 -170 220 -208 l 88 -208 z"},"6":{"x_min":0,"x_max":512,"ha":512,"o":"m 141 326 q 140 307 139 291 q 138 274 138 261 q 138 136 168 79 q 197 23 263 23 q 317 23 345 64 q 374 104 374 182 q 374 261 337 300 q 301 339 227 339 q 209 339 188 336 q 166 333 141 326 z m 468 607 q 443 612 423 615 q 404 617 387 617 q 273 617 214 554 q 156 491 143 354 q 178 371 213 380 q 248 388 286 388 q 369 388 422 334 q 475 281 475 197 q 475 103 415 44 q 355 -14 258 -14 q 150 -14 94 59 q 38 132 38 273 q 38 449 114 555 q 189 662 311 662 q 360 662 399 649 q 437 635 468 607 z"},"r":{"x_min":0,"x_max":352,"ha":352,"o":"m 170 473 l 170 406 q 212 440 242 455 q 272 469 299 469 q 306 469 316 467 q 326 465 339 461 l 339 361 q 314 380 285 390 q 255 400 223 400 q 208 400 195 399 q 182 398 170 396 l 170 144 q 170 94 179 63 q 188 32 207 0 l 50 0 q 69 33 78 65 q 87 96 87 144 l 87 335 q 87 362 77 389 q 67 416 47 446 z"},"2":{"x_min":0,"x_max":512,"ha":512,"o":"m 151 74 l 353 74 q 378 74 407 91 q 436 107 467 140 l 447 0 l 28 0 q 203 180 272 287 q 342 395 342 477 q 342 544 311 583 q 281 621 228 621 q 209 621 194 615 q 178 608 159 593 l 66 518 l 66 638 q 115 650 159 656 q 203 662 243 662 q 339 662 393 617 q 447 571 447 491 q 447 419 382 326 q 317 233 151 74 z"},"{":{"x_min":0,"x_max":500,"ha":500,"o":"m 296 541 l 296 423 q 296 342 274 308 q 253 274 199 259 q 253 244 274 210 q 296 176 296 95 l 296 -23 q 296 -96 317 -118 q 338 -141 400 -141 l 419 -141 l 419 -202 l 402 -202 q 354 -202 324 -196 q 294 -190 274 -177 q 247 -159 236 -128 q 225 -97 225 -24 l 225 95 q 225 169 198 199 q 171 229 106 229 q 103 229 95 229 q 88 228 84 228 l 84 290 q 88 290 95 290 q 103 289 106 289 q 171 289 198 319 q 225 349 225 424 l 225 543 q 225 618 236 648 q 247 679 274 696 q 294 709 324 715 q 353 721 402 721 l 419 721 l 419 659 q 415 659 408 660 q 400 660 397 660 q 338 660 317 637 q 296 614 296 541 z"},"9":{"x_min":0,"x_max":512,"ha":512,"o":"m 37 43 q 59 39 79 37 q 100 35 119 35 q 230 35 291 100 q 352 165 363 295 q 329 278 295 270 q 260 261 226 261 q 140 261 86 314 q 32 367 32 452 q 32 546 92 604 q 152 662 249 662 q 355 662 411 591 q 467 519 467 383 q 467 195 394 93 q 320 -10 187 -10 q 145 -10 107 3 q 69 17 37 43 z m 366 323 q 368 341 368 357 q 369 373 369 387 q 369 511 340 569 q 311 626 248 626 q 190 626 161 585 q 132 545 132 466 q 132 389 168 350 q 204 310 274 310 q 296 310 319 313 q 342 316 366 323 z"}," ":{"x_min":0,"x_max":256,"ha":256,"o":""},"I":{"x_min":0,"x_max":275,"ha":275,"o":"m 57 655 l 218 655 q 199 623 191 593 q 182 562 182 517 l 182 511 l 182 138 q 182 92 191 62 q 199 32 218 0 l 57 0 q 76 33 85 65 q 94 96 94 144 l 94 511 q 94 559 85 590 q 76 622 57 655 z"},"H":{"x_min":0,"x_max":644,"ha":644,"o":"m 57 655 l 218 655 q 199 623 191 593 q 182 562 182 517 l 182 511 l 182 359 l 462 359 l 462 511 q 462 559 453 590 q 444 622 425 655 l 586 655 q 567 623 559 593 q 550 562 550 517 l 550 511 l 550 138 q 550 92 559 62 q 567 32 586 0 l 425 0 q 444 33 453 65 q 462 96 462 144 l 462 316 l 182 316 l 182 138 q 182 92 191 62 q 199 32 218 0 l 57 0 q 76 33 85 65 q 94 96 94 144 l 94 511 q 94 559 85 590 q 76 622 57 655 z"},"4":{"x_min":0,"x_max":512,"ha":512,"o":"m 316 563 l 96 252 l 316 252 z m 397 665 l 397 252 l 490 252 l 490 183 l 397 183 l 397 124 q 397 86 406 56 q 415 25 434 0 l 278 0 q 297 30 306 62 q 316 95 316 129 l 316 183 l 3 183 q 76 302 156 416 q 237 530 325 640 z"},"~":{"x_min":0,"x_max":833,"ha":833,"o":"m 747 306 q 698 271 651 253 q 604 236 558 236 q 537 236 514 240 q 491 245 465 253 q 450 258 422 268 q 324 303 275 303 q 234 303 190 285 q 146 267 87 225 l 87 290 q 138 326 186 343 q 233 361 276 361 q 303 361 333 355 q 362 349 418 329 q 425 327 439 321 q 517 293 559 293 q 600 293 644 311 q 688 329 747 370 z"},"D":{"x_min":0,"x_max":646,"ha":646,"o":"m 176 611 l 176 44 l 264 44 q 379 44 439 116 q 498 188 498 329 q 498 465 442 538 q 386 611 281 611 z m 53 655 l 285 655 q 438 655 518 577 q 597 500 597 349 q 597 264 575 198 q 552 133 508 87 q 462 40 407 20 q 351 0 242 0 l 53 0 q 72 32 80 63 q 89 94 89 144 l 89 511 q 89 561 80 592 q 72 623 53 655 z"},"^":{"x_min":0,"x_max":1000,"ha":1000,"o":"m 539 712 l 793 440 l 716 440 l 500 654 l 284 440 l 206 440 l 460 712 z"},"0":{"x_min":0,"x_max":512,"ha":512,"o":"m 256 619 q 194 619 165 545 q 135 472 135 317 q 135 168 163 98 q 191 28 251 28 q 312 28 345 100 q 377 172 377 311 q 377 475 348 547 q 320 619 256 619 z m 34 329 q 34 486 95 575 q 157 663 266 663 q 367 663 422 574 q 478 485 478 324 q 478 164 417 74 q 356 -15 248 -15 q 144 -15 89 73 q 34 162 34 329 z"},"F":{"x_min":0,"x_max":472,"ha":472,"o":"m 57 655 l 458 655 l 458 529 l 364 601 q 354 608 343 612 q 331 615 315 615 l 183 615 l 183 348 l 305 348 q 312 348 328 354 q 343 359 354 367 l 412 409 l 412 256 l 356 296 q 345 304 332 308 q 319 311 293 311 l 183 311 l 183 138 q 183 92 192 62 q 200 32 219 0 l 57 0 q 76 34 85 66 q 94 98 94 145 l 94 512 q 94 560 85 591 q 76 623 57 655 z"},"`":{"x_min":0,"x_max":500,"ha":500,"o":"m 212 688 l 306 523 l 76 688 z"},"k":{"x_min":0,"x_max":491,"ha":491,"o":"m 314 463 l 490 463 q 455 442 423 419 q 390 396 359 369 l 258 281 l 422 69 q 440 45 460 28 q 480 10 501 0 l 360 0 l 178 250 l 318 393 q 325 400 329 408 q 333 415 333 422 q 333 430 328 440 q 323 451 314 463 z m 163 708 l 163 144 q 163 97 172 65 q 181 33 200 0 l 45 0 q 64 32 73 63 q 81 94 81 144 l 81 570 q 81 597 71 624 q 62 651 41 681 z"},"u":{"x_min":0,"x_max":521,"ha":521,"o":"m 156 473 l 156 197 q 156 107 182 80 q 208 53 281 53 q 295 53 312 54 q 329 55 355 58 l 355 335 q 355 362 345 389 q 335 416 315 446 l 439 473 l 439 127 q 439 99 448 73 q 458 46 479 17 l 355 -11 l 355 50 q 302 20 262 7 q 223 -7 190 -7 q 126 -7 100 28 q 73 62 73 148 l 73 335 q 73 362 63 389 q 53 416 33 446 z"},"]":{"x_min":0,"x_max":269,"ha":269,"o":"m 50 708 l 181 708 l 181 -208 l 50 -208 q 83 -171 98 -144 q 112 -117 112 -83 l 112 -69 l 112 591 q 112 609 109 620 q 107 630 101 639 q 95 649 71 681 q 58 698 50 708 z"},"U":{"x_min":0,"x_max":616,"ha":616,"o":"m 39 655 l 200 655 q 181 623 172 592 q 163 561 163 511 l 163 209 q 163 109 198 67 q 232 25 313 25 q 368 25 405 43 q 442 61 459 96 q 467 114 471 138 q 475 162 475 202 l 475 243 l 475 511 q 475 561 467 592 q 458 623 439 655 l 577 655 q 558 623 549 592 q 540 561 540 511 l 540 217 q 540 160 535 131 q 530 103 519 80 q 495 33 440 9 q 385 -16 304 -16 q 184 -16 129 33 q 75 82 75 189 l 75 511 q 75 561 66 592 q 58 623 39 655 z"},"o":{"x_min":0,"x_max":537,"ha":537,"o":"m 265 432 q 208 432 175 382 q 143 332 143 241 q 143 139 178 81 q 212 22 272 22 q 330 22 362 72 q 394 123 394 213 q 394 314 359 373 q 324 432 265 432 z m 46 227 q 46 332 110 401 q 174 469 272 469 q 367 469 429 401 q 491 332 491 226 q 491 121 427 53 q 363 -15 265 -15 q 170 -15 108 53 q 46 121 46 227 z"},"N":{"x_min":0,"x_max":625,"ha":625,"o":"m 51 655 l 170 655 l 491 164 l 491 511 q 491 559 482 590 q 473 622 454 655 l 579 655 q 560 623 551 592 q 542 561 542 511 l 542 -5 l 498 -5 l 139 542 l 139 138 q 139 92 148 62 q 156 32 175 0 l 51 0 q 70 32 78 63 q 87 94 87 144 l 87 511 q 87 561 78 592 q 70 623 51 655 z"},"+":{"x_min":0,"x_max":833,"ha":833,"o":"m 446 327 l 709 327 l 709 270 l 446 270 l 446 0 l 388 0 l 388 270 l 124 270 l 124 327 l 388 327 l 388 596 l 446 596 z"},"G":{"x_min":0,"x_max":616,"ha":616,"o":"m 545 645 l 545 529 l 447 602 q 433 612 417 617 q 400 622 378 622 q 272 622 212 543 q 152 463 152 324 q 152 178 210 102 q 269 27 381 27 q 392 27 408 28 q 424 29 455 32 l 455 153 q 455 174 453 186 q 451 198 446 208 l 418 265 l 580 265 l 556 213 q 555 211 554 209 q 543 187 543 160 l 543 8 q 497 -3 448 -9 q 400 -14 350 -14 q 208 -14 129 71 q 50 156 50 310 q 50 477 140 571 q 230 664 390 664 q 433 664 471 659 q 510 655 545 645 z"},"q":{"x_min":0,"x_max":525,"ha":525,"o":"m 367 409 q 347 417 329 420 q 311 424 294 424 q 221 424 178 373 q 135 323 135 236 q 135 149 179 102 q 223 54 303 54 q 320 54 336 55 q 352 56 367 57 z m 451 476 l 451 -68 q 451 -114 460 -144 q 468 -174 487 -206 l 331 -206 q 350 -173 358 -143 q 367 -112 367 -62 l 367 50 q 316 17 286 5 q 256 -7 226 -7 q 149 -7 99 54 q 49 116 49 212 q 49 322 111 396 q 173 469 263 469 q 293 469 320 461 q 347 452 369 436 z"},"d":{"x_min":0,"x_max":532,"ha":532,"o":"m 367 406 q 349 414 330 418 q 312 422 290 422 q 218 422 177 371 q 135 319 135 231 q 135 141 180 94 q 225 47 310 47 q 321 47 335 49 q 348 50 367 54 z m 450 709 l 450 158 q 450 100 459 70 q 468 40 489 12 l 367 -14 l 367 45 q 327 17 290 2 q 253 -13 223 -13 q 146 -13 95 51 q 44 115 44 212 q 44 318 107 393 q 170 468 257 468 q 287 468 314 460 q 341 452 367 436 l 367 543 q 367 577 357 606 q 347 636 320 679 z"},"1":{"x_min":0,"x_max":512,"ha":512,"o":"m 322 667 l 322 132 q 322 87 331 59 q 340 30 359 0 l 195 0 q 215 33 225 65 q 234 97 234 145 l 234 157 l 234 549 l 86 549 q 121 561 179 590 q 237 619 322 667 z"},"5":{"x_min":0,"x_max":512,"ha":512,"o":"m 85 648 l 435 648 l 435 569 l 135 569 l 135 388 q 167 398 197 403 q 227 408 255 408 q 350 408 406 354 q 462 299 462 207 q 462 104 396 46 q 330 -13 214 -13 q 176 -13 139 -8 q 103 -3 66 6 l 66 133 l 165 48 q 178 37 192 31 q 205 26 222 26 q 283 26 323 73 q 363 120 363 195 q 363 274 320 316 q 276 359 196 359 q 180 359 154 356 q 128 353 85 346 z"}}}
